# xmcd
#
# Track frame offsets:
#	150
#	19737
#	37838
#	57078
#	75162
#	88295
#	108435
#	135821
#	158441
#	176432
#
# Disc length: 2684 seconds
#
# Revision: 1
# Processed by: cddbd v1.5.2PL0 Copyright (c) Steve Scherf et al.
# Submitted via: audiograbber 1.81.03
#
DISCID=610a7a0a
DTITLE=Doc`Maclean - Narrow House
DYEAR=2006
DGENRE=Blues
TTITLE0=Bone Train
TTITLE1=By Degree
TTITLE2=Charley James' Blues
TTITLE3=Johnson Terraplane
TTITLE4=Three Cards On A Coffin
TTITLE5=Angola Prison Rodeo
TTITLE6=Narrow House
TTITLE7=Dead Men Walking
TTITLE8=Ain't She Pretty
TTITLE9=Who's Gonna Love You
EXTD=
EXTT0=
EXTT1=
EXTT2=
EXTT3=
EXTT4=
EXTT5=
EXTT6=
EXTT7=
EXTT8=
EXTT9=
PLAYORDER=
